<?xml version="1.0" encoding="UTF-8"?>
<svg xmlns="http://www.w3.org/2000/svg" width="112" height="24" viewBox="0 0 112 24" fill="none">
  <path fill-rule="evenodd" clip-rule="evenodd" d="M107.144 23.5843H112V18.9674H107.144V23.5843ZM10.125 13.2654H4.69828V19.8791H9.79719C11.0594 19.8791 12.0735 19.6024 12.8383 19.048C13.6032 18.494 13.9856 17.7095 13.9856 16.6934C13.9856 15.5854 13.6331 14.737 12.9294 14.1483C12.2248 13.5601 11.2904 13.2654 10.125 13.2654ZM8.55888 3.77763H4.69828V9.62955H8.19468C9.50583 9.62955 10.5313 9.39332 11.2722 8.9197C12.0128 8.44685 12.3831 7.70238 12.3831 6.68627C12.3831 5.5786 12.0427 4.81681 11.3633 4.40091C10.683 3.98539 9.74823 3.77763 8.55888 3.77763ZM9.25088 0.0379355C11.6547 0.0379355 13.6088 0.540024 15.1146 1.5442C16.6196 2.54876 17.3727 4.2397 17.3727 6.61702C17.3727 7.49462 17.1599 8.28526 16.7354 8.98895C16.3104 9.69341 15.7577 10.2994 15.0782 10.8069C16.1947 11.3609 17.1117 12.1115 17.828 13.0576C18.5438 14.0044 18.9024 15.2045 18.9024 16.6588C18.9024 18.8291 18.1068 20.5258 16.5168 21.7493C14.926 22.9728 12.8076 23.5841 10.1614 23.5841H0V0.0379355H9.25088ZM33.9072 13.5077C33.664 12.3773 33.2269 11.5401 32.596 10.9977C31.9643 10.4552 31.1756 10.1835 30.2287 10.1835C29.2571 10.1835 28.4441 10.4667 27.7885 11.0319C27.1329 11.5978 26.7076 12.4231 26.5138 13.5077H33.9072ZM31.3213 24C28.262 24 25.8517 23.2032 24.0918 21.6108C22.331 20.0179 21.4513 17.8826 21.4513 15.2044C21.4513 12.527 22.2465 10.3801 23.8368 8.76384C25.4268 7.14831 27.5938 6.34035 30.3379 6.34035C33.1059 6.34035 35.139 7.21179 36.4384 8.95467C37.737 10.6976 38.3869 12.7582 38.3869 15.1352V16.5202H26.4773C26.6959 17.6283 27.2296 18.5117 28.0799 19.1696C28.9297 19.8275 30.0466 20.156 31.4306 20.156C32.2318 20.156 32.9542 20.0583 33.5976 19.8621C34.2406 19.6663 34.9873 19.3831 35.8375 19.0137L37.2215 22.2687C36.3955 22.8689 35.394 23.3075 34.2168 23.5841C33.0388 23.8611 32.0736 24 31.3213 24ZM49.7138 3.77774H46.8001V10.9801H49.7866C51.1945 10.9801 52.36 10.7092 53.283 10.1664C54.2057 9.62428 54.667 8.72937 54.667 7.4828C54.667 6.16699 54.23 5.22052 53.3559 4.64341C52.4818 4.06668 51.2674 3.77774 49.7138 3.77774ZM56.4885 23.5842L51.2435 14.5813C50.976 14.6044 50.6972 14.6217 50.4058 14.6332C50.1144 14.6452 49.8231 14.6505 49.5317 14.6505H46.8001V23.5842H42.1019V0.038051H49.8595C52.5546 0.038051 54.8609 0.626706 56.779 1.80402C58.6976 2.98133 59.6571 4.805 59.6571 7.27504C59.6571 8.72937 59.2617 9.9817 58.473 11.032C57.6835 12.0824 56.6702 12.8965 55.4319 13.4732L61.5145 23.5842H56.4885ZM75.1355 13.5077C74.8927 12.3773 74.4556 11.5401 73.8247 10.9977C73.1926 10.4552 72.4039 10.1835 71.457 10.1835C70.4858 10.1835 69.6724 10.4667 69.0172 11.0319C68.3616 11.5978 67.9363 12.4231 67.7421 13.5077H75.1355ZM72.5496 24C69.4907 24 67.0804 23.2032 65.3201 21.6108C63.5597 20.0179 62.68 17.8826 62.68 15.2044C62.68 12.527 63.4748 10.3801 65.0651 8.76384C66.6555 7.14831 68.8221 6.34035 71.5666 6.34035C74.3346 6.34035 76.3677 7.21179 77.6671 8.95467C78.9657 10.6976 79.6152 12.7582 79.6152 15.1352V16.5202H67.706C67.9246 17.6283 68.4579 18.5117 69.3086 19.1696C70.158 19.8275 71.2749 20.156 72.6593 20.156C73.4601 20.156 74.1825 20.0583 74.8259 19.8621C75.4689 19.6663 76.216 19.3831 77.0662 19.0137L78.4498 22.2687C77.6242 22.8689 76.6227 23.3075 75.4455 23.5841C74.267 23.8611 73.3023 24 72.5496 24ZM88.6182 20.5281C90.767 20.5281 92.3412 19.2185 92.3412 17.4721V16.2717L88.7169 16.4895C86.8635 16.5988 85.8959 17.3471 85.8959 18.5325V18.5636C85.8959 19.7952 86.9618 20.5281 88.6182 20.5281ZM81.1564 18.7972V18.7664C81.1564 15.7258 83.6326 13.9479 87.9954 13.6828L92.3412 13.4335V12.4047C92.3412 10.923 91.3242 10.0031 89.4546 10.0031C87.6672 10.0031 86.5847 10.7984 86.3552 11.8741L86.322 12.0146H81.9435L81.96 11.8276C82.2223 8.74002 85.0101 6.52584 89.6517 6.52584C94.1942 6.52584 97.1301 8.7558 97.1301 12.1234V23.5841H92.3412V21.0895H92.2429C91.2421 22.8046 89.3729 23.8492 87.0602 23.8492C83.5342 23.8492 81.1564 21.7443 81.1564 18.7972ZM99.7371 23.5843H104.757V0H99.7371V23.5843Z" fill="#FAFAFA"></path>
</svg>
