<svg version="1.1" id="Layer_1" xmlns="http://www.w3.org/2000/svg" xmlns:xlink="http://www.w3.org/1999/xlink" x="0px" y="0px" viewBox="0 0 141.9 47" style="enable-background:new 0 0 141.9 47;" xml:space="preserve">
 <style type="text/css">
  .st0{fill:#FFFFFF;}
 </style>
 <g>
  <path class="st0" d="M98.7,11.6v13.8c0,3.6-1.1,5.7-3.8,5.7c-2.7,0-3.8-2.1-3.8-5.7V11.6h-7.6V26c0,7.5,4.6,10.6,11.4,10.6
		c5.7,0,11.4-3.1,11.4-10.6V11.6H98.7z">
  </path>
  <path class="st0" d="M40.7,11c-7.8,0-13.1,5.1-13.1,12.9c0,7.9,5.5,12.6,12.6,12.6c6.5,0,12.9-4.1,12.9-13
		C53.2,16.2,48.2,11,40.7,11z M40.5,31.2c-3.2,0-5-3.2-5-7.3c0-3.6,1.4-7.3,5-7.3c3.4,0,4.8,3.7,4.8,7.3
		C45.4,28.2,43.5,31.2,40.5,31.2z">
  </path>
  <path class="st0" d="M22.3,9.9c-2.6,1.7-3.2,4.4-3.2,4.4c-1.4-1.7-4.2-3.1-7.6-3.1C5.9,11.1,0,16.1,0,24c0,7,4.9,12.4,11.5,12.4
		c2.7,0,4.5-0.7,6-2.1c0,0,0,0.3,0,0.5c0,4.4-2.7,6.4-6.3,6.4c-3.5,0-6-1.2-7.6-2.1L2,44.9C4,46,8,47,11.3,47c3.6,0,7.2-0.7,9.9-3
		c2.8-2.4,3.7-6.3,3.7-11V22.2c0.1-3.7,1.4-6.4,3-8.2L22.3,9.9z M12.8,31.3c-3.2,0-5-3.2-5-7.3c0-3.6,1.4-7.3,5-7.3
		c3.4,0,4.8,3.7,4.8,7.3C17.7,28.3,15.8,31.3,12.8,31.3z">
  </path>
  <path class="st0" d="M68.3,11c-8.2,0-12.6,5.4-12.6,13.4v22.1h7.6V34.4c1.4,1.4,3.5,2.2,6.4,2.2c5.4,0,11.1-4.2,11.1-13.1
		C80.9,15.7,75.7,11,68.3,11z M68.3,31.2c-3.2,0-5-3.2-5-7.3c0-3.6,1.4-7.3,5-7.3c3.4,0,4.8,3.7,4.8,7.3
		C73.1,28.2,71.2,31.2,68.3,31.2z">
  </path>
  <path class="st0" d="M141.9,6.4V0.6c-1.1-0.3-2.4-0.5-4-0.5c-2.2,0-4.9,0.6-6.8,2.4c-2.2,2-3.1,5.3-3.1,8.2v0.9h-7.8v-1.2
		c-0.1-5.9,5.7-4.2,6.3-4V0.5c-1.1-0.3-2.4-0.5-4-0.5c-2.2,0-4.9,0.6-6.8,2.4c-2.2,2-3.1,5.3-3.1,8.2v0.9h-3.2v5.6h3.2V36
		c0,5.2-3.6,4.4-5.2,4.2l-0.8,5.6c0.8,0.3,2,0.6,3.2,0.6c3.4,0,5.9-1,7.5-2.6c2.1-2,2.8-4.9,2.8-7.8l0.1-18.8h7.8V36
		c0.1,5.5-4.2,4.4-5.2,4.2l-0.8,5.6c0.8,0.3,2,0.6,3.2,0.6c3.4,0,5.9-1,7.5-2.6c2.1-2,2.8-4.9,2.8-7.8l0.1-18.8h6.2v-5.5h-6.3v-1.2
		C135.7,4.4,141.2,6.2,141.9,6.4z">
  </path>
 </g>
</svg>