<svg xmlns="http://www.w3.org/2000/svg" width="168" height="56" viewBox="0 0 168 56" fill="none">
<path d="M8.7391 0.998072V28.8972L22.7515 26.0758C23.3567 25.958 23.9146 26.4216 23.9146 27.0425V32.9524C23.9146 33.4161 23.6003 33.809 23.1523 33.9112C15.6471 35.593 8.44049 37.3691 1.59538 39.2631C0.793772 39.4831 0 38.878 0 38.0292V1.01381C0 0.471541 0.432232 0.0314423 0.974496 0.0314423H7.77247C8.30687 0.0314423 8.74696 0.471541 8.74696 1.01381H8.7391V0.998072Z" fill="#F6F4F9"/>
<path d="M26.5946 0.0157092H46.8626C47.3971 0.0157092 47.8293 0.447958 47.8293 0.982363V5.9649C47.8293 6.48359 47.4206 6.90798 46.9019 6.93156L33.0153 7.48953V12.3306L44.1278 11.7019C44.6857 11.6705 45.1494 12.1106 45.1494 12.6685V16.8652C45.1494 17.3682 44.7643 17.7847 44.2614 17.8319C41.0628 18.0991 37.1726 18.492 33.0153 18.94V23.8596C37.8171 23.168 42.4145 22.5943 46.7683 22.1543C47.342 22.0992 47.8293 22.5472 47.8293 23.1209V27.9855C47.8293 28.4728 47.4756 28.8736 46.9962 28.9443C40.5519 29.8402 33.7854 31.0348 26.791 32.4494C26.1859 32.5752 25.6279 32.1115 25.6279 31.4985V0.982363C25.6279 0.447958 26.0601 0.0157092 26.5946 0.0157092Z" fill="#F6F4F9"/>
<path d="M72.522 6.9394L60.0263 7.30093C58.7375 7.34022 57.7079 8.4719 57.7079 9.84721V20.551C57.7079 21.4548 58.4153 22.17 59.2562 22.1149L67.6809 21.5255V17.0224C67.6809 17.0224 64.8831 17.1874 62.7455 17.3446C62.2032 17.3839 61.7395 16.9202 61.7395 16.3387V12.5035C61.7395 11.9534 62.1482 11.5054 62.659 11.4897L72.4748 11.2304C73.0092 11.2147 73.4415 11.6705 73.4415 12.2442V26.7281C73.4415 27.2704 73.0485 27.7105 72.5455 27.7341C67.4844 28.0091 62.4626 28.4335 57.48 29.0072C54.1479 29.3923 51.2401 26.5945 51.2401 23.003V7.22233C51.2401 3.23787 54.2579 0 57.9752 0H72.4984C73.0249 0 73.4415 0.455823 73.4415 1.01381V5.92562C73.4415 6.47574 73.0328 6.92368 72.522 6.9394Z" fill="#F6F4F9"/>
<path d="M77.7953 0.0157092H94.7155C95.2342 0.0157092 95.6507 0.463666 95.6507 1.02165V5.73699C95.6507 6.29497 95.2263 6.74293 94.7077 6.74293C91.1476 6.71149 87.1317 6.71935 82.8485 6.74293V10.9789H92.2635C92.7822 10.9789 93.1988 11.4268 93.1988 11.9848V15.372C93.1988 15.93 92.7744 16.378 92.2635 16.378L82.825 16.3544V20.9518C86.9666 20.9283 90.9511 20.9518 94.7469 21.0619C95.2578 21.0776 95.6507 21.5255 95.6507 22.0678V26.3588C95.6507 26.9246 95.2106 27.3804 94.6762 27.3647C89.7644 27.1604 84.3261 27.1054 77.8268 27.3176C77.3002 27.3333 76.8601 26.8853 76.8601 26.3116V1.03738C76.8601 0.479399 77.2766 0.0314423 77.7953 0.0314423V0.0157092Z" fill="#F6F4F9"/>
<path d="M102.622 27.5297C101.207 27.4197 99.6666 27.3175 98.2677 27.2311C97.7569 27.1997 97.364 26.7674 97.364 26.2409V0.998072C97.364 0.447949 97.7962 0.00786658 98.3227 0.00786658H102.692C103.282 0.00786658 103.824 0.345788 104.099 0.880193L111.369 14.9319C111.416 15.0184 111.534 14.9869 111.534 14.8926V1.00594C111.534 0.455815 111.966 0.0157092 112.492 0.0157092H116.893C117.428 0.0157092 117.852 0.455815 117.852 1.00594V28.0641C117.852 28.6614 117.349 29.1251 116.768 29.0465C115.416 28.8579 113.938 28.6771 112.382 28.4964C111.848 28.4335 111.376 28.0956 111.141 27.5926L103.777 12.4092C103.745 12.3385 103.643 12.3699 103.643 12.4406V26.5474C103.643 27.1211 103.172 27.5769 102.614 27.5376L102.622 27.5297Z" fill="#F6F4F9"/>
<path d="M122.23 0.0157092H132.415C137.578 0.0157092 141.767 4.25167 141.767 9.4857V21.7299C141.767 27.3568 136.737 31.6085 131.267 30.6104C128.179 30.0524 125.122 29.5338 122.08 29.0622C121.617 28.9915 121.271 28.5828 121.271 28.1113V0.982363C121.271 0.447958 121.695 0.0157092 122.23 0.0157092ZM127.644 22.6572L132.069 23.1995C133.413 23.3645 134.592 22.3036 134.592 20.9361V9.98082C134.592 8.76269 133.649 7.75673 132.446 7.70172L127.644 7.46596V22.6572Z" fill="#F6F4F9"/>
<path d="M167.096 11.7884L154.333 27.2075C154.333 27.2075 163.622 29.1015 166.632 29.746C167.08 29.8403 167.395 30.241 167.395 30.7047V38.0214C167.395 38.8544 166.609 39.4674 165.807 39.2552C158.286 37.2355 151.064 35.4279 144.234 33.8954C143.794 33.8011 143.48 33.4004 143.48 32.9445V25.8165C143.48 25.4943 143.598 25.1878 143.802 24.9442L157.178 9.76077L144.36 8.69981C143.857 8.66052 143.472 8.23612 143.472 7.72529V0.998072C143.472 0.455808 143.904 0.0157092 144.439 0.0157092H166.412C166.947 0.0157092 167.379 0.455808 167.379 0.998072V10.9553C167.379 11.2618 167.269 11.5605 167.08 11.7962H167.096V11.7884Z" fill="#F6F4F9"/>
<path d="M17.6982 12.3542L14.8611 13.6195C14.4289 13.816 13.9574 13.4466 14.0046 12.9593L14.3425 9.72147C14.3582 9.54072 14.3032 9.35211 14.1853 9.21851L12.1184 6.85298C11.7962 6.48361 11.977 5.90204 12.4406 5.79202L15.4349 5.1083C15.5999 5.069 15.7492 4.95897 15.8357 4.80966L17.4075 2.0276C17.6511 1.60322 18.2326 1.61108 18.4684 2.0276L20.0245 4.82536C20.1109 4.98254 20.2602 5.09258 20.4253 5.13187L23.4195 5.79989C23.891 5.90205 24.064 6.49932 23.7417 6.86868L21.6513 9.21065C21.5255 9.35211 21.4705 9.53286 21.4941 9.72147L21.8556 12.9593C21.9106 13.4466 21.439 13.816 20.999 13.6273L18.1776 12.3699C18.0205 12.2992 17.8476 12.2992 17.6904 12.3699V12.3542H17.6982Z" fill="#F6F4F9"/>
<path d="M42.2731 34.9565C42.666 35.0036 42.9725 35.1372 43.2004 35.3415C43.4205 35.5537 43.5777 35.8131 43.6641 36.1274C43.7506 36.4418 43.7899 36.7876 43.782 37.1727C43.7742 37.5499 43.7348 37.9271 43.6641 38.3122C43.5934 38.6894 43.4991 39.0509 43.3812 39.4046C43.2633 39.7504 43.1611 40.049 43.059 40.2926C42.4067 41.888 41.6287 43.2712 40.7249 44.45C39.8211 45.6289 38.768 46.7055 37.5577 47.6722C37.487 48.3087 37.4634 48.8903 37.4713 49.4011C37.4713 49.9119 37.5027 50.3913 37.5577 50.8314C39.0038 50.2263 40.2769 49.967 41.3457 50.0298C41.7937 50.0534 42.2495 50.1948 42.7054 50.4542C43.1612 50.7135 43.5462 51.0201 43.8685 51.3658C44.1907 51.7195 44.4029 52.0731 44.5208 52.4346C44.6386 52.7962 44.5836 53.0948 44.3714 53.3306C44.2536 52.8433 44.0021 52.4582 43.6248 52.191C43.2476 51.916 42.776 51.7509 42.2259 51.6802C41.6758 51.6094 41.0471 51.6409 40.3477 51.7823C39.6482 51.9238 38.9252 52.1753 38.1865 52.5289C37.4477 52.8826 36.7011 53.3384 35.9624 53.9043C35.2158 54.4622 34.5164 55.1224 33.8562 55.869C33.7462 56.0026 33.5733 56.034 33.3218 55.9633C33.0703 55.8926 32.8267 55.7747 32.5988 55.6175C32.3709 55.4525 32.1823 55.2717 32.0408 55.0752C31.8994 54.8788 31.8915 54.7059 32.0093 54.5487C32.5673 54.0379 33.1332 53.5663 33.7148 53.1262C34.2885 52.6861 34.87 52.2932 35.4437 51.9553C35.3651 51.5387 35.3179 51.0515 35.2944 50.4935C35.2786 49.9355 35.263 49.3775 35.2708 48.8117C35.1922 48.8667 35.0272 48.9296 34.7678 49.0239C34.5085 49.1103 34.2256 49.2125 33.9034 49.3146C33.5812 49.4168 33.2511 49.5111 32.8974 49.5976C32.5438 49.684 32.2294 49.739 31.9465 49.7705C31.3492 49.8255 30.8462 49.7469 30.4454 49.519C30.0446 49.2911 29.7224 49.016 29.5024 48.6938C29.2823 48.3716 29.1566 48.0494 29.1173 47.735C29.0858 47.4128 29.1409 47.2085 29.2745 47.1063C29.3452 47.3735 29.5181 47.5621 29.7931 47.6879C30.0682 47.8136 30.3983 47.8922 30.7755 47.9079C31.1527 47.9315 31.5693 47.9158 32.0251 47.8765C32.473 47.8293 32.921 47.7586 33.3532 47.6564C33.7855 47.5543 34.1784 47.4442 34.5321 47.3185C34.8857 47.1928 35.1687 47.067 35.3809 46.9334C35.4909 45.7546 35.6559 44.5757 35.8838 43.3969C36.1117 42.2181 36.4732 40.9842 36.9919 39.6875C37.1727 39.1845 37.4163 38.6501 37.7228 38.0686C38.0293 37.487 38.3986 36.9605 38.8309 36.4811C39.2631 36.0017 39.7661 35.6088 40.3477 35.3101C40.9214 35.0115 41.5737 34.8936 42.2967 34.9721L42.2731 34.9565ZM39.9862 38.4772C39.7032 39.0116 39.4439 39.5775 39.2003 40.1905C38.9566 40.8035 38.7287 41.4165 38.5244 42.0373C38.3201 42.6582 38.1393 43.2711 37.99 43.8684C37.8407 44.4657 37.7306 45.0158 37.6678 45.511C38.1472 45.173 38.6109 44.7329 39.0588 44.1907C39.5146 43.6484 39.9233 43.0668 40.3005 42.4381C40.6778 41.8094 41.0078 41.165 41.2907 40.5127C41.5736 39.8526 41.7858 39.2238 41.9352 38.6344C42.1238 37.8642 42.2259 37.2591 42.2181 36.8269C42.2181 36.3946 42.1238 36.1588 41.943 36.1117C41.7701 36.0724 41.5108 36.2375 41.165 36.6225C40.8271 37.0076 40.4262 37.6206 39.9704 38.4772H39.9862Z" fill="#F6F4F9"/>
<path d="M48.8903 43.1219C48.9375 43.059 49.0082 43.0197 49.1025 43.0197C49.1968 43.0197 49.299 43.0276 49.3933 43.0669C49.4876 43.1062 49.5662 43.1611 49.6291 43.2397C49.6919 43.3183 49.6998 43.4127 49.6605 43.5148C49.574 44.0728 49.4169 44.6465 49.1811 45.2281C48.9453 45.8096 48.6703 46.3754 48.3402 46.9177C48.0101 47.46 47.6565 47.9708 47.2714 48.4423C46.8863 48.9139 46.5012 49.3225 46.1083 49.6604C45.9196 49.8176 45.7074 49.9041 45.4638 49.9355C45.2202 49.967 44.9687 49.9591 44.7094 49.9119C44.45 49.8648 44.2064 49.8019 43.9785 49.7155C43.7506 49.629 43.562 49.5426 43.4048 49.4562C43.0747 49.2518 42.839 48.9374 42.7054 48.4973C42.5718 48.0651 42.5011 47.57 42.5089 47.0199C42.5168 46.4697 42.5875 45.8882 42.7289 45.2673C42.8704 44.6465 43.0512 44.0492 43.2712 43.4755C43.4991 42.9018 43.7584 42.391 44.0492 41.9352C44.34 41.4794 44.6386 41.1257 44.9373 40.8742C45.1259 40.7327 45.2988 40.6463 45.4795 40.5992C45.6524 40.552 45.8411 40.5442 46.0454 40.5599C46.2497 40.5756 46.4619 40.6227 46.682 40.6935C46.902 40.7642 47.1535 40.8428 47.4285 40.9213C47.8215 41.0471 48.018 41.2829 48.0651 41.5815C48.0887 41.723 48.0887 41.998 48.0416 42.3988C47.9944 42.7996 47.9001 43.224 47.7665 43.6798C47.6251 44.1356 47.4364 44.5679 47.1849 44.9923C46.9413 45.4166 46.6269 45.7467 46.2576 45.9353C45.9982 46.0689 45.7468 46.1397 45.5267 46.1633C45.3067 46.1868 45.0552 46.1711 44.7801 46.1239C44.7408 46.2733 44.7094 46.4855 44.6779 46.7684C44.6543 47.0434 44.6465 47.3264 44.6701 47.6014C44.6858 47.8765 44.733 48.1123 44.788 48.3166C44.8508 48.5209 44.9608 48.6152 45.118 48.6074C45.3538 48.5917 45.6446 48.4109 45.9983 48.0494C46.3519 47.6879 46.7134 47.2478 47.0671 46.7134C47.4286 46.179 47.7744 45.5974 48.1044 44.9608C48.4345 44.3243 48.686 43.7113 48.8589 43.1376L48.8903 43.1219ZM46.4069 42.1002C46.2812 42.2259 46.1318 42.4381 45.9668 42.7525C45.8018 43.0668 45.6446 43.3812 45.4953 43.727C45.3538 44.0649 45.2359 44.3793 45.1416 44.6622C45.0473 44.953 45.008 45.1259 45.0237 45.1887C45.2909 45.173 45.511 45.0473 45.6918 44.8115C45.8725 44.5757 46.0218 44.2928 46.1397 43.9706C46.2576 43.6484 46.3362 43.3105 46.3755 42.9647C46.4148 42.6189 46.4226 42.336 46.4069 42.1002Z" fill="#F6F4F9"/>
<path d="M57.2758 41.9744C57.4094 41.888 57.5194 41.8801 57.598 41.9587C57.6766 42.0373 57.7159 42.1552 57.7159 42.3045C57.7159 42.4538 57.6844 42.6267 57.6137 42.8232C57.5508 43.0197 57.433 43.1847 57.2758 43.3183C56.7728 43.7113 56.3013 44.112 55.8612 44.5128C55.4211 44.9136 55.0046 45.3302 54.6273 45.7546C54.478 45.9039 54.3601 46.1082 54.2737 46.3518C54.1008 46.9491 53.8807 47.625 53.6135 48.3795C53.3542 49.1339 53.0634 49.8648 52.7569 50.5799C52.4504 51.2951 52.1203 51.9317 51.7824 52.4818C51.4445 53.0319 51.0987 53.4091 50.745 53.6056C50.5957 53.692 50.3442 53.7313 49.9906 53.7156C49.6448 53.7078 49.3069 53.6292 48.9846 53.4877C48.6624 53.3463 48.4109 53.1419 48.2144 52.859C48.0258 52.5761 48.0101 52.2224 48.1752 51.7823C48.3873 51.2243 48.7096 50.6192 49.1575 49.9748C49.6055 49.3304 50.0613 48.7252 50.5328 48.1594C51.0044 47.5935 51.4287 47.0984 51.8138 46.6662C52.1911 46.2339 52.4111 45.9432 52.4583 45.8017C52.5683 45.5031 52.6547 45.1652 52.7333 44.7879C52.8119 44.4107 52.8748 44.0728 52.9298 43.7898C52.7726 44.057 52.5918 44.3478 52.3875 44.6779C52.191 45.008 51.9789 45.338 51.7509 45.6681C51.523 45.9982 51.2951 46.3126 51.0594 46.6112C50.8236 46.9098 50.5957 47.1613 50.3678 47.3735C50.2342 47.4992 50.0299 47.5621 49.7705 47.5778C49.5112 47.5935 49.2519 47.5621 48.9925 47.4835C48.7332 47.4128 48.5131 47.3027 48.3166 47.1534C48.1201 47.0041 48.0258 46.8312 48.0337 46.6426C48.0337 46.1396 48.1045 45.6052 48.2538 45.0237C48.4031 44.4421 48.6074 43.8763 48.8589 43.3105C49.1182 42.7525 49.409 42.2259 49.7313 41.7308C50.0613 41.2357 50.4071 40.8191 50.7608 40.4734C50.9887 40.2533 51.2166 40.104 51.4288 40.0333C51.6409 39.9625 51.8531 39.9468 52.0575 39.9704C52.2618 39.994 52.4661 40.0568 52.6705 40.1433C52.8748 40.2297 53.087 40.324 53.2992 40.4262C53.3463 40.3476 53.4092 40.2298 53.4956 40.0647C53.5821 39.8997 53.6528 39.7896 53.7 39.7425C53.8179 39.6246 53.975 39.5539 54.1715 39.5303C54.368 39.5067 54.5723 39.5146 54.7688 39.5539C54.9653 39.601 55.1303 39.6639 55.2639 39.7661C55.3975 39.8604 55.4682 39.9704 55.4761 40.0961C55.4604 40.3869 55.4289 40.7092 55.3818 41.055C55.3346 41.4007 55.2796 41.7544 55.2246 42.108C55.1696 42.4617 55.1146 42.7996 55.0596 43.1297C55.0045 43.4597 54.9574 43.7427 54.926 43.9784C55.3975 43.5383 55.814 43.169 56.1755 42.8625C56.537 42.556 56.8907 42.2652 57.2522 41.9902L57.2758 41.9744ZM49.3697 52.5368C49.7548 52.1203 50.1163 51.578 50.4621 50.91C50.8079 50.242 51.1065 49.5976 51.3423 48.9689C51.138 49.2596 50.9179 49.5819 50.6743 49.9355C50.4307 50.2892 50.2106 50.6349 50.0063 50.9729C49.802 51.3108 49.6448 51.6252 49.519 51.9081C49.4012 52.191 49.3461 52.4032 49.3619 52.5368H49.3697ZM52.5211 42.1001C52.5762 41.9823 52.6076 41.8487 52.6311 41.6994C52.6469 41.5501 52.6469 41.4322 52.6233 41.3379C52.5997 41.2435 52.5447 41.1964 52.4661 41.1964C52.3875 41.1964 52.2618 41.2907 52.0967 41.4714C51.8453 41.7544 51.6095 42.0766 51.3816 42.4459C51.1537 42.8153 50.9572 43.1847 50.7764 43.5698C50.5957 43.9548 50.4385 44.3164 50.3128 44.6543C50.1871 45.0001 50.1006 45.2909 50.0613 45.5345C50.0613 45.6602 50.1006 45.7153 50.1792 45.6995C50.2656 45.6838 50.3914 45.5738 50.5721 45.3695C50.745 45.173 50.9415 44.9058 51.1537 44.5679C51.3659 44.2378 51.5938 43.8605 51.8374 43.4283C52.0811 43.0039 52.309 42.556 52.5211 42.0923V42.1001Z" fill="#F6F4F9"/>
<path d="M62.7613 40.8978C62.8163 40.8349 62.887 40.8035 62.9813 40.8113C63.0757 40.8113 63.1699 40.8349 63.2643 40.882C63.3586 40.9292 63.4293 40.992 63.4843 41.0706C63.5393 41.1571 63.5393 41.2436 63.4921 41.3457C63.3664 41.8958 63.1621 42.4538 62.887 43.0118C62.612 43.5698 62.2897 44.112 61.9204 44.6229C61.551 45.1337 61.1581 45.6131 60.7415 46.0532C60.325 46.4933 59.9085 46.8705 59.492 47.177C59.2955 47.3185 59.0755 47.3892 58.8318 47.3971C58.5882 47.4049 58.3367 47.3735 58.0852 47.3106C57.8337 47.2477 57.5901 47.1613 57.3779 47.0591C57.1579 46.9569 56.9771 46.8548 56.8278 46.7526C56.5135 46.5247 56.3091 46.1868 56.207 45.7467C56.1048 45.2987 56.0812 44.8036 56.1284 44.2613C56.1834 43.7191 56.3013 43.1376 56.482 42.5324C56.6706 41.9273 56.8985 41.3457 57.1657 40.7956C57.4329 40.2455 57.7316 39.7503 58.0617 39.3181C58.3917 38.8859 58.7139 38.5558 59.0283 38.3357C59.2248 38.21 59.4055 38.1393 59.5863 38.1079C59.7671 38.0764 59.9556 38.0764 60.1521 38.1079C60.3564 38.1393 60.5608 38.2022 60.773 38.2965C60.9852 38.3829 61.2288 38.4851 61.496 38.5872C61.8732 38.7444 62.054 38.9959 62.0776 39.2945C62.0854 39.436 62.0618 39.7111 61.9833 40.1119C61.9047 40.5048 61.7789 40.9213 61.606 41.3614C61.4331 41.8015 61.2052 42.2259 60.9302 42.6267C60.6551 43.0275 60.3093 43.334 59.9321 43.4912C59.6649 43.6012 59.4055 43.6562 59.1855 43.6562C58.9654 43.6562 58.7218 43.6248 58.4467 43.5541C58.3917 43.6955 58.3446 43.9077 58.2974 44.1828C58.2503 44.4578 58.2267 44.7329 58.2267 45.0079C58.2267 45.283 58.2424 45.5266 58.2896 45.731C58.3367 45.9353 58.4389 46.0453 58.5961 46.0453C58.8318 46.0453 59.1305 45.8882 59.5155 45.5581C59.8928 45.228 60.2857 44.8115 60.6865 44.3164C61.0873 43.8134 61.4724 43.2633 61.8497 42.6503C62.2269 42.0373 62.5255 41.4557 62.7377 40.8978H62.7613ZM60.3722 39.6796C60.2386 39.7975 60.0736 39.994 59.8849 40.2926C59.6963 40.5834 59.5156 40.8977 59.3427 41.2199C59.1698 41.5422 59.0283 41.8487 58.9104 42.1237C58.7926 42.3988 58.7454 42.5717 58.7533 42.6424C59.0205 42.6424 59.2484 42.5403 59.4527 42.3202C59.6492 42.1002 59.822 41.8329 59.9635 41.5186C60.105 41.2042 60.2072 40.8742 60.2779 40.5362C60.3408 40.1983 60.3801 39.9075 60.3801 39.6796H60.3722Z" fill="#F6F4F9"/>
<path d="M71.0524 40.3948C71.0917 40.3005 71.1624 40.2534 71.2724 40.2534C71.3825 40.2534 71.4925 40.2848 71.6104 40.3319C71.7204 40.3791 71.8225 40.4341 71.9011 40.5049C71.9797 40.5756 72.0112 40.6306 72.0033 40.6699C71.8226 41.0785 71.6025 41.5265 71.3432 42.0295C71.076 42.5246 70.7931 43.0118 70.4944 43.4755C70.1879 43.9392 69.8814 44.3635 69.5592 44.7486C69.237 45.1337 68.9383 45.4088 68.6554 45.5817C68.4668 45.6917 68.2389 45.7546 67.9874 45.7546C67.7281 45.7546 67.4766 45.731 67.2251 45.676C66.9736 45.621 66.7536 45.5267 66.5571 45.4167C66.3606 45.3066 66.2427 45.1731 66.1956 45.0395C66.117 44.8194 66.0855 44.505 66.1013 44.1042C66.117 43.7034 66.1642 43.3026 66.227 42.9018C66.2978 42.501 66.3685 42.1316 66.4471 41.8015C66.5256 41.4715 66.5807 41.2593 66.6121 41.1572C66.3449 41.4165 66.0463 41.778 65.7319 42.2495C65.4176 42.721 65.1032 43.2162 64.8124 43.7427C64.5138 44.2693 64.2466 44.7879 64.0108 45.2909C63.7751 45.8017 63.5943 46.2183 63.4764 46.5484C63.4214 46.682 63.2878 46.7605 63.0756 46.792C62.8634 46.8234 62.6512 46.8234 62.4312 46.7762C62.2111 46.7369 62.0146 46.6662 61.8339 46.564C61.6531 46.4619 61.5824 46.3519 61.606 46.2261C61.6453 45.8882 61.7239 45.4481 61.826 44.8901C61.9282 44.3322 62.0539 43.727 62.2111 43.0747C62.3604 42.4146 62.549 41.7387 62.7612 41.0393C62.9734 40.3398 63.2249 39.6875 63.5157 39.0824C63.5943 38.8781 63.7514 38.768 63.9794 38.7445C64.2073 38.7209 64.443 38.7444 64.6709 38.8152C64.9067 38.8859 65.0954 38.9881 65.2525 39.1217C65.4097 39.2553 65.4726 39.381 65.4333 39.491C65.3154 39.7897 65.1897 40.0962 65.0482 40.4027C64.9146 40.7092 64.781 40.9999 64.6553 41.2671C64.5295 41.5343 64.4195 41.7701 64.333 41.9745C64.2466 42.1788 64.1994 42.3124 64.1916 42.3831C64.388 42.0452 64.6081 41.7072 64.836 41.3693C65.0718 41.0314 65.3075 40.7092 65.5511 40.4105C65.7948 40.1119 66.0463 39.8368 66.3056 39.5932C66.5649 39.3496 66.8165 39.1374 67.0679 38.9645C67.233 38.8545 67.453 38.8073 67.7123 38.823C67.9717 38.8388 68.2232 38.9016 68.4511 39.0038C68.679 39.1059 68.8676 39.2395 69.0091 39.3967C69.1505 39.5539 69.1898 39.7189 69.127 39.8918C69.0327 40.1748 68.9069 40.5206 68.7497 40.9371C68.5925 41.3536 68.4511 41.7937 68.3175 42.2495C68.1839 42.7053 68.066 43.1455 67.9796 43.562C67.8852 43.9785 67.8538 44.3321 67.8853 44.615C68.1446 44.4421 68.4196 44.2064 68.7104 43.9078C69.0012 43.6091 69.292 43.2712 69.5671 42.8939C69.85 42.5167 70.1172 42.1081 70.3765 41.6837C70.6359 41.2514 70.8716 40.8271 71.076 40.4027L71.0524 40.3948Z" fill="#F6F4F9"/>
<path d="M78.5577 32.6538C78.7463 32.5516 78.9899 32.5359 79.2649 32.6066C79.54 32.6774 79.7915 32.7874 80.0194 32.9367C80.2473 33.086 80.4045 33.2589 80.4988 33.4397C80.5931 33.6204 80.5617 33.7698 80.4124 33.8798C79.8151 34.312 79.2257 34.9564 78.6598 35.813C78.094 36.6697 77.5832 37.6049 77.1273 38.6344C76.6794 39.6639 76.31 40.7092 76.0113 41.7858C75.7206 42.8625 75.5398 43.8449 75.4769 44.7329C75.4141 45.621 75.477 46.3518 75.6656 46.9255C75.8542 47.4992 76.2 47.79 76.7108 47.8057C76.6008 47.9315 76.4357 48.0179 76.2157 48.0651C75.9956 48.1122 75.752 48.0965 75.4848 48.0179C75.2176 47.9393 74.9583 47.7979 74.7068 47.5778C74.4474 47.3578 74.2274 47.0591 74.0545 46.674C73.8737 46.289 73.7559 45.8174 73.693 45.2516C73.6301 44.6857 73.6694 44.0177 73.8109 43.2318C73.8109 43.1768 73.7952 43.1454 73.7873 43.1375C73.7716 43.1375 73.7559 43.1533 73.7244 43.2162C73.6223 43.4126 73.5044 43.6248 73.3708 43.8527C73.2372 44.0806 73.0957 44.2928 72.9464 44.505C72.7971 44.7093 72.6478 44.8979 72.5063 45.0551C72.3648 45.2123 72.2391 45.3223 72.1291 45.3695C71.9641 45.4402 71.7597 45.4717 71.5239 45.4717C71.2882 45.4717 71.0603 45.4402 70.8324 45.3695C70.6044 45.2988 70.408 45.1887 70.2351 45.0394C70.0622 44.8901 69.96 44.6936 69.9286 44.45C69.8893 44.1278 69.8972 43.7348 69.9522 43.279C70.0072 42.8232 70.1093 42.3438 70.2508 41.8409C70.3923 41.3379 70.5808 40.8349 70.8088 40.3241C71.0367 39.8133 71.296 39.3574 71.5868 38.9488C71.8776 38.5401 72.1998 38.2021 72.5456 37.9271C72.8914 37.652 73.2686 37.487 73.6459 37.4398C73.9366 37.4084 74.2274 37.4398 74.4868 37.5341C74.754 37.6284 75.0054 37.7227 75.2491 37.8249C75.3041 37.6756 75.3984 37.4556 75.532 37.1648C75.6656 36.8819 75.8228 36.5596 76.0035 36.2138C76.1843 35.8681 76.3807 35.4987 76.6008 35.1293C76.8208 34.7521 77.0409 34.3984 77.2609 34.0605C77.481 33.7226 77.7089 33.4318 77.9289 33.1882C78.149 32.9446 78.3533 32.7638 78.5341 32.6695L78.5577 32.6538ZM74.5182 39.3417C74.5653 39.1688 74.5653 39.0116 74.5103 38.9016C74.4553 38.7916 74.3139 38.768 74.0938 38.8544C73.8895 38.933 73.6851 39.0981 73.4651 39.3574C73.2529 39.6168 73.0486 39.9154 72.8442 40.2612C72.6478 40.607 72.467 40.9685 72.3098 41.3457C72.1527 41.723 72.0269 42.0766 71.9404 42.4067C71.854 42.7367 71.8068 43.0118 71.799 43.2476C71.799 43.4833 71.8462 43.6091 71.964 43.6484C72.0269 43.672 72.1291 43.5933 72.2705 43.4204C72.4199 43.2476 72.577 43.0196 72.7578 42.7367C72.9386 42.4538 73.1193 42.1395 73.3236 41.7937C73.5201 41.4479 73.7008 41.1099 73.8659 40.7799C74.0309 40.4498 74.1724 40.159 74.2903 39.8997C74.4082 39.6403 74.4789 39.4517 74.5024 39.3495L74.5182 39.3417Z" fill="#F6F4F9"/>
<path d="M89.788 36.4654C90.684 36.8897 91.3991 37.3691 91.8549 37.8957C92.3186 38.4301 92.4365 39.2239 92.2086 40.2219C92.1379 40.4656 92.0357 40.7642 91.9021 41.1178C91.7685 41.4715 91.6034 41.888 91.407 42.3517C91.2184 42.7918 91.0297 43.2397 90.8647 43.6877C90.6997 44.1356 90.5032 44.6072 90.346 45.0709C90.1889 45.5267 90.0867 45.9746 90.0002 46.3754C89.9138 46.7762 89.8666 47.1535 89.8509 47.5071C89.8273 48.1437 90.0788 48.5131 90.6053 48.5995C90.401 48.8903 90.0631 48.9689 89.6152 48.851C89.1358 48.7253 88.7192 48.3952 88.3656 47.9315C88.0119 47.4757 87.839 46.792 88.0119 46.0218C88.1219 45.5267 88.3263 44.9608 88.5385 44.3714C88.7506 43.782 89.0021 43.169 89.2929 42.5246C89.4658 42.1238 89.6151 41.7544 89.7409 41.4165C89.8666 41.0785 89.9845 40.7799 90.0788 40.5048C90.3382 39.7818 90.4167 39.1531 90.2753 38.6737C90.1417 38.21 89.7016 37.8171 88.9785 37.5263C88.9078 38.8466 88.4206 40.3712 87.5404 42.0688C86.6366 43.7977 85.6464 45.0001 84.609 45.6446C84.3418 45.7624 83.9331 45.8017 83.4773 45.6996C83.0529 45.6053 82.6207 45.3852 82.2199 45.1338C81.8348 44.8901 81.5912 44.5915 81.5283 44.2378C81.4262 43.7349 81.4969 43.0354 81.7169 42.1945C81.5991 42.3438 81.4812 42.501 81.3476 42.666C81.214 42.8311 81.0647 43.0197 80.9154 43.224C80.3259 44.0413 79.6736 44.8037 78.9742 45.511C78.7934 45.6681 78.5105 45.7074 78.1254 45.6367C77.756 45.566 77.4103 45.4166 77.0881 45.2045C76.7816 45.0001 76.6008 44.7329 76.6086 44.4657C76.6244 43.9549 76.7737 43.3576 76.9623 42.7839C77.1509 42.2102 77.4024 41.6208 77.7168 41.0078C78.3219 39.829 79.0449 38.8938 79.8858 38.2101C80.3259 37.8721 80.7503 37.7464 81.1432 37.8407C81.5441 37.935 81.9291 38.1236 82.3064 38.3829C82.4714 38.4615 82.6207 38.548 82.7543 38.6423C82.7857 38.5873 82.8172 38.5322 82.8565 38.4772C82.8958 38.4222 82.9429 38.3594 82.9979 38.2965C83.1001 38.1472 83.1551 38.0764 83.2652 37.9271C83.3673 37.7935 83.4538 37.6992 83.5088 37.6599C83.6974 37.4792 83.9646 37.4791 84.2632 37.5813C84.5383 37.6756 84.8291 37.825 85.0648 38.0529C85.277 38.2572 85.332 38.4694 85.2141 38.6894C84.2868 40.1119 83.7367 41.3379 83.5559 42.3438C83.3752 43.3576 83.4066 43.9942 83.6031 44.1435C83.831 44.3086 84.2554 44.0649 84.7898 43.4126C85.0648 43.114 85.3242 42.7682 85.5757 42.3753C85.8272 41.9823 86.0786 41.5501 86.3301 41.0785C86.5894 40.5991 86.7859 40.1197 86.9353 39.6561C87.0846 39.1924 87.226 38.7287 87.281 38.3122C87.3989 37.487 87.0846 36.819 86.4637 36.4418C86.2594 36.3396 86.1965 36.1667 86.2908 35.9074C86.3223 35.7816 86.3773 35.6638 86.4559 35.5459C86.5345 35.428 86.6288 35.3101 86.7545 35.2001C86.9981 34.9329 87.2496 34.7757 87.4618 34.705C87.729 34.6185 87.9412 34.6499 88.0669 34.8386C88.1377 34.9093 88.2006 34.9722 88.2399 35.035C88.287 35.0979 88.3184 35.1608 88.3498 35.2315C88.4834 35.4358 88.6328 35.6245 88.8057 35.7974C88.8921 35.8838 89.0179 35.9781 89.1829 36.0881C89.3479 36.1982 89.5444 36.3239 89.7802 36.4654H89.788ZM81.6462 40.0726C81.6462 40.0726 81.7169 39.9311 81.7327 39.7661C81.7405 39.6404 81.7012 39.5067 81.6619 39.3967C81.6148 39.271 81.5441 39.1845 81.4576 39.1767C81.3397 39.161 81.1983 39.2317 81.0411 39.3889C80.3574 40.0805 79.8229 40.8663 79.4221 41.7544C79.1864 42.1945 79.0213 42.5718 78.9192 42.8783C78.817 43.1847 78.762 43.4362 78.7384 43.6327C79.0764 43.3262 79.54 42.7918 80.153 42.0452C80.4517 41.6679 80.7267 41.3222 80.9704 40.9921C81.2219 40.662 81.4498 40.3555 81.6462 40.0804V40.0726Z" fill="#F6F4F9"/>
<path d="M102.37 40.9763C102.519 40.9213 102.629 40.937 102.7 41.0235C102.763 41.1021 102.787 41.2199 102.763 41.3614C102.74 41.5029 102.677 41.6601 102.567 41.8251C102.457 41.9901 102.307 42.1237 102.103 42.2259C101.506 42.4931 100.948 42.7603 100.437 43.0354C99.926 43.3104 99.4309 43.6012 98.9515 43.9156C98.7393 44.0492 98.5743 44.2064 98.4564 44.3871C98.1185 44.9215 97.7334 45.5109 97.3012 46.1554C96.8611 46.8077 96.3974 47.4206 95.9101 48.0022C95.415 48.5916 94.912 49.1103 94.3934 49.5661C93.8747 50.0219 93.3796 50.3284 92.9002 50.4778C92.7194 50.5328 92.4679 50.5171 92.1536 50.4306C91.8392 50.3363 91.5642 50.187 91.3127 49.9826C91.0691 49.7705 90.8961 49.5111 90.8097 49.2046C90.7154 48.8903 90.8097 48.5445 91.0769 48.1594C91.4227 47.6721 91.8864 47.1692 92.4758 46.6583C93.0652 46.1475 93.6704 45.6838 94.2676 45.2594C94.8728 44.8351 95.415 44.4578 95.8944 44.1356C96.3738 43.8134 96.6489 43.5934 96.7353 43.4598C96.8218 43.3262 96.9161 43.1611 97.0261 42.9568C97.1361 42.7525 97.2461 42.5403 97.3483 42.3281C97.4505 42.108 97.5605 41.9037 97.6627 41.6994C97.7649 41.4951 97.8434 41.3221 97.9063 41.1728C97.6627 41.495 97.3798 41.8173 97.0733 42.1395C96.7668 42.4617 96.4524 42.776 96.1459 43.0668C95.8316 43.3576 95.5251 43.6248 95.2107 43.8606C94.8964 44.0963 94.6134 44.2928 94.3462 44.4421C94.1812 44.5286 93.9768 44.5443 93.7175 44.4893C93.466 44.4343 93.2224 44.3399 92.9945 44.2063C92.7666 44.0727 92.578 43.9077 92.4286 43.7191C92.2793 43.5305 92.2322 43.334 92.2872 43.1454C92.3815 42.8153 92.5072 42.4224 92.6801 41.9902C92.853 41.5579 93.0574 41.1178 93.2853 40.6698C93.5132 40.2219 93.7725 39.7975 94.0633 39.3967C94.3541 38.988 94.6527 38.6344 94.9749 38.3279C95.0849 38.2257 95.2578 38.1943 95.4858 38.2414C95.7137 38.2807 95.9337 38.3672 96.1381 38.4772C96.3424 38.5951 96.4995 38.7287 96.6096 38.8937C96.7196 39.0588 96.696 39.1924 96.5546 39.3181C96.3659 39.491 96.1223 39.7818 95.8394 40.1669C95.5565 40.5598 95.2971 40.9528 95.0692 41.3457C94.8413 41.7387 94.6684 42.0845 94.5584 42.3752C94.4484 42.666 94.4562 42.8074 94.5898 42.7839C94.7234 42.7681 94.9199 42.6345 95.1792 42.3909C95.4386 42.1473 95.7372 41.8487 96.0752 41.4872C96.4052 41.1257 96.7589 40.7327 97.1283 40.3083C97.4977 39.8761 97.8513 39.4674 98.1814 39.0666C98.5114 38.6737 98.8022 38.3122 99.0615 38.0057C99.3209 37.6913 99.5016 37.4556 99.6038 37.322C99.6903 37.2119 99.8553 37.1648 100.068 37.1883C100.272 37.2119 100.484 37.2826 100.704 37.3927C100.916 37.5027 101.097 37.6363 101.238 37.7856C101.38 37.9349 101.427 38.0764 101.388 38.1864C101.309 38.4536 101.207 38.7916 101.058 39.1609C100.908 39.5303 100.751 39.9075 100.578 40.2926C100.405 40.6777 100.248 41.0471 100.099 41.3929C99.9496 41.7387 99.8239 42.0373 99.7296 42.2731C100.295 41.9587 100.775 41.7072 101.168 41.5186C101.553 41.33 101.961 41.1492 102.394 40.9763H102.37ZM92.0278 49.181C92.2557 49.0317 92.5072 48.8431 92.7666 48.6152C93.0338 48.3873 93.2931 48.1437 93.5524 47.8686C93.8118 47.6014 94.0633 47.3185 94.3069 47.0356C94.5505 46.7526 94.7706 46.4697 94.9592 46.1947C94.692 46.4068 94.3855 46.6583 94.0476 46.9413C93.7096 47.2242 93.3953 47.5149 93.1124 47.7979C92.8216 48.0808 92.5701 48.348 92.3658 48.5995C92.1615 48.851 92.0436 49.0396 92.02 49.1732L92.0278 49.181Z" fill="#F6F4F9"/>
<path d="M123.621 34.7207C123.982 34.815 124.265 34.9722 124.469 35.1922C124.674 35.4123 124.815 35.6559 124.886 35.9152C124.957 36.1746 124.988 36.4418 124.964 36.709C124.941 36.9762 124.894 37.1962 124.807 37.377C124.729 37.5578 124.627 37.6756 124.517 37.7306C124.399 37.7856 124.296 37.7307 124.21 37.5735C124.045 37.3141 123.746 37.1176 123.298 36.9919C122.858 36.8661 122.363 36.7876 121.829 36.7561C121.294 36.7247 120.776 36.7247 120.265 36.7561C119.754 36.7876 119.369 36.8426 119.086 36.9133C119.251 36.929 119.424 36.984 119.597 37.0705C119.77 37.1569 119.911 37.2512 120.029 37.3534C120.147 37.4556 120.233 37.5735 120.296 37.6992C120.359 37.8249 120.359 37.9192 120.296 37.99C119.007 39.829 118.371 40.7485 117.129 42.611C117.719 42.4303 118.277 42.4381 118.787 42.611C119.298 42.7918 119.715 43.0276 120.037 43.3183C120.351 43.6091 120.54 43.892 120.603 44.1671C120.666 44.4421 120.548 44.5993 120.257 44.6386C120.218 44.615 120.147 44.56 120.053 44.4736C119.958 44.3871 119.77 44.3164 119.479 44.2692C119.188 44.2221 118.764 44.2142 118.206 44.2457C117.648 44.2771 116.878 44.395 115.903 44.5993C114.536 46.7212 113.868 47.79 112.555 49.9355C112.437 50.132 112.249 50.2342 111.989 50.2263C111.738 50.2184 111.486 50.1477 111.251 50.0298C111.015 49.9041 110.826 49.7469 110.693 49.5426C110.559 49.3382 110.543 49.1418 110.661 48.9374C111.51 47.5071 111.942 46.7998 112.815 45.3774C112.736 45.3931 112.626 45.4323 112.485 45.4874C112.343 45.5424 112.186 45.6131 112.021 45.676C111.856 45.7467 111.699 45.8096 111.549 45.8803C111.4 45.9432 111.29 45.9904 111.211 46.0218C111.039 46.0925 110.85 46.0532 110.653 45.9118C110.449 45.7703 110.276 45.5896 110.135 45.3774C109.993 45.1652 109.907 44.953 109.883 44.7408C109.86 44.5286 109.938 44.3871 110.127 44.3242C110.465 44.1985 110.818 44.0806 111.164 43.9706C111.51 43.8606 111.856 43.7506 112.178 43.6484C112.508 43.5462 112.807 43.4519 113.066 43.3733C113.325 43.2947 113.648 43.2319 113.726 43.1533C113.86 43.0275 113.978 42.5639 114.119 42.1866C114.261 41.8094 114.386 41.4243 114.489 41.0392C114.591 40.6463 114.669 40.2612 114.701 39.8839C114.74 39.5067 114.701 39.1688 114.606 38.8859C114.504 38.5951 114.316 38.3751 114.048 38.21C113.781 38.045 113.388 37.9821 112.877 38.0214C112.642 38.0528 112.437 37.9821 112.257 37.8092C112.076 37.6363 111.958 37.432 111.895 37.2041C111.832 36.9762 111.832 36.7561 111.911 36.5439C111.982 36.3317 112.139 36.1982 112.375 36.1432C113.475 35.9074 114.575 35.6716 115.667 35.4358C116.76 35.2001 117.797 35.0036 118.78 34.8464C119.762 34.6892 120.666 34.5949 121.491 34.5556C122.316 34.5163 123.031 34.5714 123.613 34.7207H123.621ZM114.481 37.7385C114.787 37.9271 115.039 38.1078 115.235 38.265C115.439 38.4222 115.605 38.603 115.738 38.7995C115.872 38.9959 115.966 39.2238 116.029 39.4832C116.092 39.7425 116.123 40.0726 116.147 40.4577C117.003 39.0981 117.436 38.4144 118.308 37.0626C117.923 37.1098 117.585 37.1648 117.294 37.2119C116.996 37.2591 116.705 37.3063 116.422 37.3613C116.131 37.4084 115.84 37.4713 115.534 37.5341C115.227 37.597 114.882 37.6677 114.489 37.7306L114.481 37.7385Z" fill="#F6F4F9"/>
<path d="M128.965 46.0296C129.028 45.9746 129.098 45.9668 129.193 45.9982C129.287 46.0297 129.365 46.0847 129.452 46.1554C129.53 46.2261 129.593 46.3047 129.641 46.3833C129.688 46.4619 129.696 46.5247 129.672 46.564C129.515 46.7448 129.31 46.9884 129.051 47.2871C128.8 47.5857 128.509 47.9001 128.187 48.238C127.864 48.5759 127.527 48.906 127.181 49.2282C126.835 49.5504 126.489 49.8255 126.151 50.0534C125.813 50.2734 125.491 50.4306 125.192 50.5171C124.894 50.6035 124.627 50.5642 124.407 50.3992C124.014 50.0927 123.731 49.7784 123.566 49.4562C123.401 49.1339 123.401 48.7331 123.581 48.238C123.243 48.5366 122.929 48.8117 122.63 49.0632C122.332 49.3147 121.923 49.6055 121.397 49.9355C121.208 50.0613 120.972 50.1006 120.689 50.0691C120.406 50.0377 120.139 49.9512 119.88 49.8176C119.62 49.684 119.408 49.519 119.235 49.3147C119.062 49.1103 118.984 48.8981 119.015 48.6859C119.055 48.4423 119.141 48.1437 119.29 47.7822C119.44 47.4207 119.62 47.0434 119.833 46.6348C120.045 46.2261 120.281 45.8175 120.54 45.4167C120.799 45.0159 121.051 44.6386 121.302 44.2929C121.554 43.9471 121.774 43.6641 121.978 43.4362C122.182 43.2083 122.347 43.0669 122.458 43.0118C122.575 42.949 122.74 42.9411 122.937 43.0118C123.133 43.0747 123.314 43.169 123.479 43.2948C123.644 43.4126 123.762 43.5462 123.849 43.6877C123.927 43.8292 123.927 43.9313 123.849 44.0099C123.691 44.1671 123.456 44.45 123.157 44.843C122.85 45.2438 122.544 45.676 122.23 46.1397C121.915 46.6033 121.624 47.0592 121.365 47.4914C121.106 47.9315 120.941 48.2616 120.878 48.4816C120.949 48.4816 121.09 48.4109 121.294 48.2616C121.499 48.1123 121.742 47.9079 122.033 47.6407C122.324 47.3814 122.646 47.0749 122.992 46.7212C123.346 46.3676 123.715 45.9982 124.1 45.6053C124.485 45.2123 124.87 44.8115 125.255 44.4028C125.64 43.9942 126.002 43.5855 126.348 43.1768C126.481 43.0275 126.654 42.9804 126.882 43.0354C127.11 43.0904 127.314 43.1926 127.511 43.3419C127.707 43.4912 127.849 43.6563 127.951 43.8449C128.053 44.0335 128.053 44.175 127.967 44.285C127.723 44.56 127.44 44.9294 127.11 45.3852C126.78 45.841 126.466 46.3283 126.167 46.8313C125.868 47.3421 125.609 47.8215 125.389 48.2851C125.169 48.7488 125.051 49.1103 125.027 49.3775C125.334 49.2832 125.664 49.1025 126.033 48.8274C126.403 48.5523 126.764 48.2537 127.126 47.9237C127.487 47.5936 127.833 47.2556 128.155 46.9177C128.485 46.5719 128.752 46.2811 128.973 46.0454L128.965 46.0296Z" fill="#F6F4F9"/>
<path d="M137.169 48.2616C137.24 48.183 137.327 48.1672 137.429 48.2144C137.531 48.2616 137.625 48.3244 137.712 48.4109C137.798 48.4973 137.869 48.5837 137.916 48.6781C137.963 48.7724 137.971 48.8352 137.947 48.8745C137.625 49.1889 137.248 49.519 136.816 49.8884C136.383 50.2499 135.936 50.5878 135.48 50.91C135.024 51.2322 134.568 51.5073 134.128 51.743C133.688 51.9788 133.295 52.1203 132.965 52.1831C132.745 52.2146 132.517 52.1832 132.273 52.0967C132.03 52.0024 131.802 51.8845 131.59 51.7352C131.377 51.5859 131.197 51.4208 131.055 51.2401C130.914 51.0593 130.851 50.8943 130.859 50.7607C130.874 50.5249 130.953 50.2184 131.118 49.8569C131.283 49.4954 131.472 49.1339 131.684 48.7881C131.896 48.4423 132.1 48.1279 132.297 47.845C132.493 47.5699 132.627 47.3892 132.69 47.3106C132.344 47.4521 131.927 47.68 131.456 47.9943C130.984 48.3165 130.513 48.6624 130.034 49.0396C129.562 49.4168 129.114 49.794 128.705 50.1791C128.297 50.5642 127.974 50.8864 127.739 51.1458C127.637 51.2479 127.479 51.2715 127.275 51.2244C127.063 51.1772 126.866 51.0908 126.678 50.9729C126.489 50.855 126.332 50.7135 126.198 50.5563C126.073 50.3992 126.041 50.2656 126.112 50.1555C126.277 49.8569 126.513 49.4718 126.811 48.9924C127.11 48.513 127.456 48.0022 127.849 47.4442C128.234 46.8941 128.658 46.3283 129.114 45.7624C129.57 45.1966 130.049 44.6779 130.544 44.2221C130.694 44.0649 130.882 44.0177 131.11 44.0806C131.33 44.1435 131.542 44.2535 131.731 44.4028C131.92 44.5521 132.061 44.725 132.163 44.9058C132.258 45.0865 132.273 45.228 132.195 45.3223C131.975 45.5581 131.739 45.7938 131.495 46.0296C131.252 46.2654 131.024 46.4854 130.804 46.6819C130.584 46.8784 130.403 47.0591 130.246 47.2163C130.088 47.3735 129.994 47.4757 129.963 47.5385C130.269 47.3028 130.599 47.067 130.945 46.8391C131.291 46.6112 131.637 46.4069 131.975 46.2183C132.313 46.0296 132.651 45.8724 132.981 45.7388C133.311 45.6052 133.633 45.5109 133.931 45.4402C134.128 45.4009 134.348 45.4402 134.592 45.5502C134.827 45.6602 135.04 45.8096 135.22 45.9982C135.401 46.1868 135.527 46.3754 135.598 46.5719C135.668 46.7683 135.645 46.9413 135.527 47.0749C135.33 47.3028 135.087 47.5778 134.788 47.9079C134.489 48.238 134.191 48.5838 133.892 48.961C133.594 49.3304 133.326 49.6997 133.083 50.0534C132.839 50.407 132.682 50.7214 132.595 50.9964C132.902 50.9336 133.248 50.8157 133.633 50.6428C134.018 50.4777 134.411 50.2656 134.82 50.0219C135.22 49.7783 135.629 49.5033 136.03 49.1968C136.431 48.8981 136.808 48.5838 137.162 48.2694L137.169 48.2616Z" fill="#F6F4F9"/>
</svg>
