<?xml version="1.0" encoding="utf-8"?>
<svg xmlns="http://www.w3.org/2000/svg" viewBox="459.334 131.647 596.174 174.867" xmlns:bx="https://boxy-svg.com" width="596.174px" height="174.867px"><defs><bx:export><bx:file format="svg"/></bx:export></defs><path d="M 648.662 252.046 L 626.364 252.046 L 626.364 218.055 C 626.364 216.13 625.785 214.562 624.626 213.358 C 623.555 212.15 621.862 211.548 619.549 211.548 C 616.16 211.548 613.106 213.077 610.381 216.13 L 610.381 252.046 L 588.084 252.046 L 588.084 218.055 C 588.084 213.717 585.81 211.548 581.268 211.548 C 577.968 211.548 574.953 213.077 572.228 216.13 L 572.228 252.046 L 549.926 252.046 L 549.926 193.828 L 572.228 193.828 L 572.228 200.46 C 573.795 198.529 576.397 196.723 580.03 195.037 C 583.664 193.27 587.672 192.386 592.047 192.386 C 600.968 192.386 606.708 195.796 609.266 202.629 C 611.166 199.814 613.976 197.407 617.693 195.396 C 621.488 193.389 625.662 192.386 630.203 192.386 C 635.899 192.386 640.402 193.828 643.707 196.723 C 647.007 199.613 648.662 203.995 648.662 209.862 L 648.662 252.046 Z" style="stroke-width: 1; fill: rgba(255, 255, 255, 0.8);"/><path d="M 684.767 186.117 C 682.371 188.444 679.439 189.61 675.973 189.61 C 672.5 189.61 669.529 188.444 667.05 186.117 C 664.659 183.705 663.461 180.815 663.461 177.436 C 663.461 174.064 664.659 171.212 667.05 168.881 C 669.529 166.468 672.5 165.264 675.973 165.264 C 679.439 165.264 682.371 166.468 684.767 168.881 C 687.246 171.212 688.483 174.064 688.483 177.436 C 688.483 180.815 687.246 183.705 684.767 186.117 Z M 687.119 252.046 L 664.821 252.046 L 664.821 193.828 L 687.119 193.828 L 687.119 252.046 Z" style="stroke-width: 1; fill: rgba(255, 255, 255, 0.8);"/><path d="M 732.744 253.493 C 723.081 253.493 715.068 250.68 708.708 245.056 C 702.35 239.429 699.168 232.038 699.168 222.879 C 699.168 213.798 702.35 206.445 708.708 200.823 C 715.068 195.195 723.081 192.386 732.744 192.386 C 738.937 192.386 744.22 193.508 748.6 195.759 C 752.975 197.928 756.156 200.46 758.135 203.349 L 743.768 216.488 C 741.539 213.196 738.195 211.548 733.731 211.548 C 730.431 211.548 727.623 212.55 725.31 214.562 C 723.081 216.488 721.967 219.263 721.967 222.879 C 721.967 226.492 723.081 229.306 725.31 231.317 C 727.623 233.323 730.431 234.327 733.731 234.327 C 738.027 234.327 741.372 232.64 743.768 229.267 L 758.135 242.524 C 756.156 245.415 752.975 247.99 748.6 250.241 C 744.22 252.409 738.937 253.493 732.744 253.493 Z" style="stroke-width: 1; fill: rgba(255, 255, 255, 0.8);"/><path d="M 791.456 252.046 L 769.158 252.046 L 769.158 193.828 L 791.456 193.828 L 791.456 200.22 C 793.356 198.047 796.037 196.159 799.51 194.555 C 803.06 192.944 806.487 192.142 809.791 192.142 L 809.791 212.876 C 808.549 212.474 806.86 212.269 804.71 212.269 C 798.189 212.269 793.769 213.635 791.456 216.368 L 791.456 252.046 Z" style="stroke-width: 1; fill: rgba(255, 255, 255, 0.8);"/><path d="M 875.156 244.574 C 869.043 250.518 860.868 253.493 850.625 253.493 C 840.387 253.493 832.212 250.518 826.098 244.574 C 820.068 238.627 817.054 231.394 817.054 222.879 C 817.054 214.362 820.068 207.166 826.098 201.305 C 832.212 195.357 840.387 192.386 850.625 192.386 C 860.868 192.386 869.043 195.357 875.156 201.305 C 881.264 207.166 884.325 214.362 884.325 222.879 C 884.325 231.394 881.264 238.627 875.156 244.574 Z M 850.625 234.327 C 854.012 234.327 856.654 233.286 858.556 231.193 C 860.456 229.024 861.403 226.253 861.403 222.879 C 861.403 219.584 860.456 216.894 858.556 214.801 C 856.654 212.632 854.012 211.548 850.625 211.548 C 847.325 211.548 844.723 212.632 842.823 214.801 C 840.922 216.894 839.975 219.584 839.975 222.879 C 839.975 226.253 840.922 229.024 842.823 231.193 C 844.723 233.286 847.325 234.327 850.625 234.327 Z" style="stroke-width: 1; fill: rgba(255, 255, 255, 0.8);"/><path d="M 943.307 252.046 L 918.284 252.046 L 918.284 202.629 L 904.284 216.13 L 890.163 201.782 L 921.75 171.651 L 943.307 171.651 L 943.307 252.046 Z" style="stroke-width: 1; fill: rgba(255, 255, 255, 0.8);"/><path d="M 980.52 249.634 C 977.878 252.209 974.78 253.493 971.23 253.493 C 967.68 253.493 964.582 252.209 961.941 249.634 C 959.299 247.063 957.974 244.049 957.974 240.595 C 957.974 237.14 959.299 234.126 961.941 231.556 C 964.582 228.985 967.68 227.701 971.23 227.701 C 974.78 227.701 977.878 228.985 980.52 231.556 C 983.162 234.126 984.483 237.14 984.483 240.595 C 984.483 244.049 983.162 247.063 980.52 249.634 Z" style="stroke-width: 1; fill: rgba(255, 255, 255, 0.8);"/></svg>