<?xml version="1.0" encoding="utf-8"?>
<svg xmlns="http://www.w3.org/2000/svg" viewBox="33.8 160 263.4 68.2" width="263.4px" height="68.2px"><defs><style type="text/css">
	.st0{fill:#FFA600;}
	.st1{fill:#D42E2E;}
	.st2{fill:#000057;}
	.st3{fill:#54D1C7;}
	.st4{fill:#FFFFFF;}
	.st5{fill:#BCAB78;}
</style></defs><g id="object-0"><path d="M69.6,176.1h9.1c4.3,0,11.3,0,11.3-7.7c0-7.7-7-7.7-11.3-7.7h-14v25.2h4.9V176.1z M69.6,164.9h10.2c2.8,0,5.3,0.2,5.3,3.5    c0,3.3-2.5,3.5-5.3,3.5H69.6V164.9z" style="fill: rgb(255, 255, 255);"/><path d="M107.7,186.5c8.2,0,13.4-3.3,13.4-11.4v-14.4h-4.9v14c0,4.2-1.5,7.6-8.5,7.6c-7,0-8.5-3.4-8.5-7.6v-14h-4.9v14.4    C94.3,183.2,99.5,186.5,107.7,186.5z" style="fill: rgb(255, 255, 255);"/><path d="M153.8,178.6c0-3.3-2.1-5.4-3.9-6.2c1.4-0.9,2.9-2,2.9-5.2c0-4.8-4-6.5-9.9-6.5h-15.2v25.2h16.1    C150,185.9,153.8,183.3,153.8,178.6z M132.7,164.8h10.6c3.2,0,4.6,0.8,4.6,2.9c0,2.1-1.4,2.9-4.6,2.9h-10.6V164.8z M132.7,181.8    v-7.1h10.7c3.3,0,5.5,0.8,5.5,3.5c0,3-2.4,3.6-5.5,3.6H132.7z" style="fill: rgb(255, 255, 255);"/><polygon points="182.5,181.5 164.2,181.5 164.2,160.7 159.3,160.7 159.3,185.9 182.5,185.9   " style="fill: rgb(255, 255, 255);"/><rect x="187.3" y="160.7" width="4.9" height="25.2" style="fill: rgb(255, 255, 255);"/><path d="M211.9,182.3c-5.4,0-9.6-3.1-9.6-8.8c0-5.2,2.9-9.2,9.9-9.2c5.9,0,7.8,3.6,8.1,4.4h4.9c-0.4-1.4-2-8.7-13.3-8.7    c-10,0-14.6,5.5-14.6,12.8c0,9.2,6.3,13.6,14.3,13.6c11.6,0,13.6-6.8,14.1-9.6h-4.9C220.2,178.8,217.7,182.3,211.9,182.3z" style="fill: rgb(255, 255, 255);"/><rect x="231" y="160.7" width="4.9" height="25.2" style="fill: rgb(255, 255, 255);"/><path d="M258.6,171l-6-0.9c-5-0.6-5.7-1.8-5.7-2.8c0-2.3,3.4-3.2,6.7-3.2c6,0,8,1.9,8.8,4.2l4.6-1.5c-0.6-1.7-2.5-6.8-13.4-6.8    c-1.9,0-11.8,0-11.8,7.6c0,3.8,3.3,6.4,9.1,7.2l6,0.8c3.6,0.5,5.5,1.5,5.5,3.2c0,2.2-3.3,3.5-7.4,3.5c-6.7,0-8.5-2.7-9.4-4.5    l-4.8,1.5c0.6,1.9,3.2,7.2,14,7.2c6.7,0,12.4-2.2,12.4-8.2C267.6,174.1,264.3,171.9,258.6,171z" style="fill: rgb(255, 255, 255);"/><path d="M48.1,218.5h8.8c-1.2,3.5-3.9,5.2-8.7,5.2c-5.3,0-9.4-3.1-9.4-9c0-3.5,1.9-8.8,9.8-8.8c5.8,0,7.1,3,7.7,4.3h5    c-1.2-6.3-7.6-8.5-13.4-8.5c-10.1,0-14.1,6.6-14.1,13.3c0,10,7.8,13.2,14.3,13.2c4.9,0,7.5-1.7,9.4-2.9l1,2.6h3v-13.2H48.1V218.5z    " style="fill: rgb(255, 255, 255);"/><path d="M92.5,209.8c0-6.2-4.3-7.5-10.3-7.5H67.1v25.2H72v-9.9h7.8l7.3,9.9h6.1l-7.7-10.3C89.2,217,92.5,214.5,92.5,209.8z     M72,213.5v-7.1h9.5c4,0,6.1,0.6,6.1,3.5c0,3-2,3.6-6.1,3.6H72z" style="fill: rgb(255, 255, 255);"/><path d="M112,201.7c-11.1,0-15,6.5-15,13.4c0,5.2,3.1,13,15,13s15-7.8,15-13C127,208.2,123.1,201.7,112,201.7z M112,223.9    c-4.7,0-10.1-1.9-10.1-9.1c0-6.1,4.3-8.9,10.1-8.9s10.1,2.8,10.1,8.9C122.1,221.9,116.7,223.9,112,223.9z" style="fill: rgb(255, 255, 255);"/><path d="M153.9,216.3c0,4.2-1.5,7.6-8.5,7.6c-7,0-8.5-3.4-8.5-7.6v-14H132v14.4c0,8.1,5.2,11.4,13.4,11.4    c8.2,0,13.4-3.3,13.4-11.4v-14.4h-4.9V216.3z" style="fill: rgb(255, 255, 255);"/><path d="M179.5,202.3h-14v25.2h4.9v-9.8h9.1c4.3,0,11.3,0,11.3-7.7C190.8,202.3,183.8,202.3,179.5,202.3z M180.6,213.5h-10.2v-7    h10.2c2.8,0,5.3,0.2,5.3,3.5C185.9,213.2,183.4,213.5,180.6,213.5z" style="fill: rgb(255, 255, 255);"/><polygon points="200,216.6 215.2,216.6 215.2,212.4 200,212.4 200,206.5 217.7,206.5 217.7,202.3 195.1,202.3 195.1,227.5     218.1,227.5 218.1,223.3 200,223.3   " style="fill: rgb(255, 255, 255);"/><path d="M258.5,216.3c0,4.2-1.5,7.6-8.5,7.6c-7,0-8.5-3.4-8.5-7.6v-14h-4.9v14.4c0,8.1,5.2,11.4,13.4,11.4    c8.2,0,13.4-3.3,13.4-11.4v-14.4h-4.9V216.3z" style="fill: rgb(255, 255, 255);"/><polygon points="284,212.3 296,202.3 289,202.3 275,214 275,202.3 270.1,202.3 270.1,227.5 275,227.5 275,219.7 280.4,215.2     290.8,227.5 297.2,227.5   " style="fill: rgb(255, 255, 255);"/></g></svg>