<svg version="1.1" id="Layer_1" xmlns="http://www.w3.org/2000/svg" xmlns:xlink="http://www.w3.org/1999/xlink" x="0px" y="0px" viewBox="0 0 623.9 154.1" style="enable-background:new 0 0 623.9 154.1;" xml:space="preserve">
 <style type="text/css">
  .st0{fill:#FFFFFF;}
 </style>
 <title>
  Asset 2
 </title>
 <g id="Layer_2_1_">
  <g id="LOGO.V.2.0">
   <path class="st0" d="M16.5,112.5c-2.2-1.6-4.3-1.6-5.5,0.7l-1,2c-0.7,1.8-2.4,2.9-4.3,3c-2.3,0-3.7-1.3-3.7-4.6
			c0-9.5-1-22.5-1.9-32c-0.3-3.2,1-4.8,3.2-5.2s4.2,0.3,5.9,3.7c8.9,18,16.6,30.1,33.3,30.1c11.8,0,19.4-7.1,19.4-16.6
			c0-10.1-8.9-15-18.9-18.7c-10.4-3.9-15.7-5.9-19.9-8.1C16.7,63.7,1.3,55.3,1.3,35.3c0-21.7,17.6-34.7,40-34.7
			C48.5,0.5,55.6,2,62,5.2c1.8,0.8,3.8,0.2,4.9-1.4l1.4-1.9c1-1.3,1.9-1.9,3-1.9c1.9-0.1,3.5,1.4,3.6,3.4c0,0.1,0,0.2,0,0.2
			c1.2,9.4,2,17.4,3.2,26.9c0.3,2.4-0.7,4.2-3,4.6c-2.2,0.4-4.5-0.8-5.3-2.9C64.7,21.2,54.9,9.9,42.5,9.9
			c-11.4,0-17.1,7.1-17.1,14.5c0,9.6,5.9,12.7,11.8,15.3c7.3,3.2,14.1,5.9,21.3,8.9C69.9,53.4,86,60,86,81.2s-16.4,38.7-42.9,38.7
			C29.6,119.9,21.4,116.1,16.5,112.5z M125.2,116.9c3,0.1,4.2-1.6,4.2-3.3c0.2-1.6-0.9-3.2-2.4-3.6c-4.2-1.4-5.5-3-5.5-10.7V64.9
			c0-3,0.1-4,2.4-6c2.8-2.4,6.4-3.7,10.1-3.6c7.8,0,8.6,7.9,8.8,15.6l0.3,25.6c0.1,10.1-0.7,11.1-4.9,13c-1.4,0.5-2.4,1.9-2.4,3.5
			c0,2.3,1.9,4.1,4.2,4c0,0,0.1,0,0.1,0c4.6,0,6.3-0.4,13-0.4c10.7,0,16.9,0.1,20.4,0.4c2.2,0.1,3.9-1.3,3.9-3
			c0.2-1.7-1.1-3.3-2.9-3.5c0,0,0,0,0,0c-3.7-0.7-4.9-3.5-4.9-7.6V71.1c0-8.6-1.7-17.1-8.8-22.8c-5-4-10.4-5.5-16.9-5.5
			c-6.8,0-13.5,3.2-19.6,7.8c-2.4,1.9-3.9,0.7-4.5-1.6l-0.7-3.3c-0.4-1.7-2.2-2.7-4.6-1.9c-8.6,2.9-17.3,5.1-26.2,6.6
			c-1.6,0-2.9,1.4-2.9,3c0,0.1,0,0.1,0,0.2c0,1.8,1.3,3.3,3,3.5c3.7,0.9,6,3.5,6.3,11.7c0.1,5.2,0.3,15.3,0.3,21.2
			c0,5.6,0,11.8-0.4,15.3s-3.5,4.3-5.9,4.9c-1.6,0.2-2.9,1.6-2.9,3.3c0,1.7,1.4,3,3.6,3h11.2C113.2,116.5,120.7,116.8,125.2,116.9z
			 M225.8,70.4c0-3,0-6.3-0.1-9.2c-0.1-4.2-2.4-9.9-9.9-9.9c-4.8,0-8.1,2.2-8.9,8.1c-0.3,2-0.3,4.2-0.7,5.9
			c-1.6,6.2-6.8,8.2-12.1,8.2s-10.4-3.4-10.4-9.8c0-12.8,21.6-21.3,43.5-21.3c14.3,0,24.9,4.8,24.8,17.7l-0.6,36.7
			c0,3.7-0.1,9.5,3.5,9.5c1,0,2-0.3,2.9-0.9c1.3-0.9,3-0.8,4.2,0.1c1.3,1.2,1.1,3.3-0.3,5c-6.3,7.6-12.8,8.8-18.4,8.8
			c-4.8,0-9.9-1-13.4-4.2c-1.3-1.2-1.6-1.6-3-3c-1.1-1.2-2.3-2-4.2-0.6c-4.9,3.7-11.5,8.1-23,8.1c-12.5,0-20.3-7.8-20.3-17.3
			c0-7.1,3.9-14.1,11.5-18.4c9.6-5.5,20.3-8.5,31.1-10.1C224.7,73.4,225.8,72.1,225.8,70.4z M223.1,103.4c1.1-0.9,2.3-1.7,2.3-3.9
			V86c0-3.2-2.9-4.2-5.2-3.5C213.1,84.7,207,88,207,95.5c0,6.3,2.6,10.1,8.5,10.1C219.5,105.6,221.4,104.7,223.1,103.4L223.1,103.4z
			 M417.6,109.3c-5.3-1-5.8-7.6-5.9-23.3l-0.4-49.8c-0.1-21.3-0.1-24.5,9.8-25.2c1.8-0.3,3.1-1.9,3-3.7c0.1-1.8-1.3-3.4-3.2-3.5
			c-0.1,0-0.2,0-0.3,0h-47.1c-2.3,0-4.2,1.2-4.2,3.5c-0.1,1.8,1.1,3.4,2.9,3.9c5.5,0.9,7.2,1.4,8.5,4.5c1,2.3,1.7,7.1,1.7,18.1v51
			c0,20.6-0.9,23-9.5,24.8c-1.9,0.2-3.4,1.8-3.6,3.7c0,2.1,1.7,3.8,3.7,3.8c0.1,0,0.3,0,0.4,0c5.2-0.3,9.4-0.4,18.9-0.4
			c16,0,19,0,24.8,0.3c2.6,0.1,4.2-1.4,4.2-3.7C421.3,111.3,420.6,109.9,417.6,109.3L417.6,109.3z M457,45.8
			c-0.4-1.7-2.2-2.7-4.6-1.9c-5.6,2-18.4,5.9-26.2,6.6c-2.9,0.3-3.7,1.4-3.7,3.2s1,3,3.9,3.5c3.7,0.6,6,3.5,6.3,11.7
			C432.8,74,433,84.1,433,90c0,5.6,0,11.8-0.4,15.3s-2,4.2-4,4.9c-1.6,0.3-2.7,1.7-2.6,3.3c0,1.7,1.1,3,3.3,3h9.4
			c12.8,0,20.3,0.3,23.9,0.4c3.9,0.1,5-1.6,5-3.3c0.2-1.6-0.9-3.2-2.5-3.6c-4.2-1.4-5.5-3-5.5-10.7V66.1c0-3,0.1-4,2.5-6
			c2.8-2.4,6.4-3.7,10.1-3.6c8.5,0,8.4,7.9,8.5,15.6l0.3,24.5c0.1,10.1-0.7,11.1-4.9,13c-1.4,0.5-2.4,1.9-2.5,3.5c0,2.3,1.9,4,4.2,4
			c0.1,0,0.1,0,0.2,0c4.6,0,6.3-0.4,13-0.4c10.7,0,17.4,0.3,21,0.4c3.6,0.1,4.8-1.9,4.8-3.6s-0.9-3.2-3.7-3.7
			c-3.7-0.7-5.5-3.5-5.5-7.6V71.1c0-8.6-1.7-17.1-8.8-22.8c-5-4-10.4-5.5-16.9-5.5c-6.8,0-13,3-19,7.6c-2.5,1.9-4.5,0.9-5-1.4
			L457,45.8z M556.8,119.4c10.5,0,23.8-3.2,33.1-14.1c1.5-1.6,1.3-4.1-0.3-5.5c-0.1-0.1-0.3-0.3-0.5-0.4c-1.9-1.4-4.5-1.1-6,0.7
			c-4.3,4.6-8.6,7.2-14.5,7.2c-11.2,0-20.6-13.1-20.6-31.4c0-8.2,2.3-24,12.4-24c4.5,0,6.5,2.6,7.2,5c0.9,3,0.7,6.8,2.5,10.8
			c1.9,4.5,5.8,6.5,11.4,6.5c6.2,0,10.2-5.2,10.2-11.7c0-12-15.4-18.9-31.2-18.9C537,43.7,517,58.3,517,81.8
			C516.9,103.5,533.9,119.4,556.8,119.4L556.8,119.4z M609.6,118.2c7.5,0,14.3-5.8,14.3-13.8c-0.1-7.9-6.4-14.3-14.2-14.4
			c-7.1,0-14.5,4.6-14.5,14.4C595.1,111.9,600.9,118.2,609.6,118.2L609.6,118.2z M258.7,150.9c0-1.7,1-3,4.3-3.3
			c5.5-0.4,6.6-4.6,6.8-8.8c0.1-3.6,0-13,0-16.4V70c0-11.7-2-14.3-6.8-16.3c-1.7-0.7-2.9-1.7-2.9-3.6s0.7-3.5,3.9-3.7
			c9.5-0.9,21.6-4,26.8-5.3c1.8-0.4,3.5,0.7,3.9,2.5c0,0,0,0.1,0,0.1c0.1,0.7,0.4,2.5,1,4.8s1.9,3.3,4.3,1.3
			c5.7-4.8,12.9-7.4,20.3-7.3c18.7,0,30.4,17.3,30.4,35.1c0,24.5-17.1,40.2-35.6,40.2c-6.5,0-11.1-1.3-14.2-2.9
			c-2.3-1.2-4.6,0-4.6,3.2v17.9c0,7.2,0.9,12.1,6.6,12.4c2.6,0.1,3.6,1.3,3.6,3s-1.7,2.9-4,2.9c-11.2,0-18.9-0.6-23.6-0.6
			c-6.5,0-10.1,0.6-15.3,0.6C260.6,154.1,258.7,153.4,258.7,150.9z M322.5,80.5c0-14.7-5.2-24.5-15.8-24.5
			c-10.4,0-10.4,10.5-10.4,14.1v23.5c0,5.2,0,14.1,11.1,14.1C317.8,107.7,322.5,93.9,322.5,80.5z">
   </path>
  </g>
 </g>
</svg>